<svg role="img" viewBox="0 0 24 24" xmlns="http://www.w3.org/2000/svg">
  <title>LinkedIn icon</title>
  <path fill="#fff" d="M22.353 0H1.647C.738 0 0 .738 0 1.647v21.706C0 23.262.738 24 1.647 24h20.706c.91 0 1.647-.738 1.647-1.647V1.647C24 .738 23.262 0 22.353 0zM7.667 20.824H3.993V9.566h3.674v11.258zM5.83 7.842a1.979 1.979 0 1 1-.001-3.96 1.979 1.979 0 0 1 .001 3.96zm14.982 12.982h-3.674v-5.895c0-1.403-.026-3.206-1.953-3.206-1.954 0-2.255 1.526-2.255 3.103v6.998H9.158V9.566h3.487v1.653h.047c.484-.918 1.672-1.888 3.442-1.888 3.683 0 4.358 2.423 4.358 5.579v6.834z"/>
</svg>
